<svg width="24" height="24" viewBox="0 0 24 24" fill="none" xmlns="http://www.w3.org/2000/svg">
<path d="M12 24C18.6194 24 24 18.6194 24 12C24 5.38064 18.6194 0 12 0C5.38064 0 0 5.38064 0 12C0 18.6194 5.38064 24 12 24ZM2.70968 16.7806L7.5871 16.7419C8.12903 18.6968 9.03871 20.5935 10.2774 22.2968C6.96774 21.7548 4.2 19.6452 2.70968 16.7806ZM8.82581 8.70968H14.9032C15.3484 10.8387 15.3484 13.0258 14.9419 15.1548L8.82581 15.1935C8.38064 13.0452 8.38064 10.8387 8.82581 8.70968ZM11.8645 21.8516C10.6452 20.2839 9.75484 18.5613 9.2129 16.7419L14.5355 16.7032C13.9742 18.5226 13.0839 20.2645 11.8645 21.8516ZM13.4129 22.3548C14.6903 20.6129 15.6 18.6968 16.1419 16.6839L21.3484 16.6452C19.8387 19.6839 16.8968 21.871 13.4129 22.3548ZM22.4516 12C22.4516 13.0839 22.2774 14.129 21.9871 15.0968L16.5097 15.1355C16.8968 13.0065 16.8774 10.8387 16.471 8.70968H21.9097C22.2581 9.73548 22.4516 10.8581 22.4516 12ZM21.2516 7.16129H16.1032C15.5419 5.22581 14.6516 3.34839 13.4129 1.64516C16.8387 2.10968 19.7226 4.21935 21.2516 7.16129ZM14.4968 7.16129H9.23226C9.79355 5.38065 10.6645 3.69677 11.8645 2.14839C13.0645 3.69677 13.9355 5.38065 14.4968 7.16129ZM10.2774 1.70323C9.05806 3.3871 8.16774 5.22581 7.62581 7.16129H2.74839C4.23871 4.31613 6.9871 2.24516 10.2774 1.70323ZM7.25806 8.70968C6.85161 10.8581 6.85161 13.0452 7.23871 15.1935L2.07097 15.2323C1.72258 14.2065 1.54839 13.1226 1.54839 12C1.54839 10.8581 1.74194 9.73548 2.09032 8.70968H7.25806Z" fill="#0072B4"/>
</svg>
