<svg width="119" height="134" viewBox="0 0 119 134" fill="none" xmlns="http://www.w3.org/2000/svg">
<path id="&#208;&#145;&#208;&#184;&#208;&#183;&#208;&#189;&#208;&#181;&#209;&#129; &#208;&#191;&#208;&#187;&#208;&#176;&#208;&#189;_page-0001 1 (Traced)" fill-rule="evenodd" clip-rule="evenodd" d="M18.2063 0.121191C16.2058 0.639432 14.0753 1.77806 12.8445 2.98654C11.2174 4.58439 9.73204 7.6769 8.90669 11.1855C8.5014 12.9084 8.43122 13.2442 8.25338 14.3141C7.66352 17.8609 7.15638 25.7698 7.31166 28.9986C7.35072 29.8102 7.41523 31.2779 7.45494 32.2602C7.59637 35.7508 8.06656 40.5844 8.51037 43.1093C8.60642 43.655 8.75365 44.5779 8.83769 45.16C8.92186 45.7422 9.0406 46.4864 9.10169 46.8138C9.16264 47.1413 9.2819 47.8558 9.3666 48.4015C9.50644 49.3028 9.62426 49.9024 10.0557 51.9076C10.5208 54.0704 11.7136 57.7621 12.5452 59.613C12.6838 59.9215 12.7972 60.2048 12.7972 60.2425C12.7972 60.3351 13.946 62.872 14.6546 64.3443C15.2346 65.5493 15.9297 66.7801 16.7897 68.125C17.0491 68.5306 17.3847 69.083 17.5355 69.3522L17.8098 69.8418L17.5132 69.9704C17.3502 70.0412 17.1277 70.1561 17.0189 70.226C16.9101 70.2957 16.2684 70.6828 15.593 71.0862C14.3359 71.8369 12.5358 73.1666 11.4779 74.1258C9.23506 76.1595 6.60254 79.3016 5.20739 81.6102C3.83519 83.8807 2.26378 87.395 1.7168 89.4163C1.62814 89.7437 1.50703 90.1383 1.44766 90.2931C1.30808 90.6572 0.974036 92.0603 0.806089 92.9885C0.73366 93.3887 0.614132 94.0437 0.540515 94.4439C0.466767 94.8441 0.366764 95.7224 0.318214 96.3954C0.269532 97.0684 0.178105 97.6192 0.114911 97.6192C0.0517166 97.6192 0 98.6016 0 99.8023C0 101.003 0.0517166 101.985 0.114911 101.985C0.178105 101.985 0.269929 102.536 0.319138 103.209C0.43273 104.768 0.667827 106.229 1.07984 107.939C1.23314 108.575 2.04821 111.137 2.23739 111.577C3.27383 113.991 4.10261 115.625 5.33351 117.68C6.78856 120.11 10.4756 124.311 12.7972 126.184C13.2688 126.565 13.7602 126.962 13.8893 127.068C14.3603 127.453 16.1851 128.668 17.0849 129.195C20.2306 131.039 24.1836 132.608 27.5284 133.339C33.1205 134.562 40.7648 134.057 46.6521 132.076C49.2898 131.188 54.5524 128.75 57.1796 127.2C59.8349 125.633 62.3013 123.557 65.9205 119.843C70.4548 115.19 73.4627 110.72 76.1831 104.591C77.2778 102.125 78.495 98.0079 79.0269 94.9731C79.1098 94.5001 79.2325 93.8452 79.2996 93.5177C79.7189 91.4714 79.9493 88.4453 79.9485 84.9916C79.9476 80.6834 79.6223 74.2715 79.2855 71.9188C78.9419 69.518 78.8726 69.0642 78.7655 68.512C78.7019 68.1845 78.5776 67.5296 78.4891 67.0566C77.85 63.6386 76.0629 58.0429 74.535 54.6753C74.4003 54.3784 74.1706 53.8315 74.0246 53.4598C73.2091 51.3851 69.4995 44.0226 67.2431 40.0001C64.4792 35.073 60.1467 28.6022 57.3309 25.1958C54.2922 21.5196 50.4484 17.6504 46.9669 14.7635C41.7302 10.4209 37.2846 7.39509 31.6631 4.34703C30.6835 3.81583 29.5258 3.18777 29.0905 2.95108C27.0333 1.83336 25.4791 1.09337 24.6275 0.826116C22.4165 0.13257 19.4283 -0.195549 18.2063 0.121191ZM111.48 25.0044C109.951 25.4227 109.319 25.6878 108.119 26.4144C106.327 27.4992 102.979 30.5602 100.568 33.3187C98.6216 35.546 98.0095 36.2548 97.4279 36.955C97.0662 37.3904 96.6609 37.8667 96.5274 38.0134C96.3938 38.1601 94.8502 40.1172 93.0972 42.3626C91.3441 44.6078 89.6239 46.8107 89.2742 47.2579C88.4636 48.2945 87.6083 49.4002 87.2751 49.8425C87.132 50.0323 86.5579 50.7566 85.9993 51.452L84.9837 52.7163L85.3763 54.0319C86.5778 58.0578 87.2097 61.0887 88.3269 68.1812C89.4052 75.027 89.3831 83.5697 88.2722 89.3501C88.1182 90.1515 87.6689 92.0163 87.4115 92.9224C87.3082 93.2862 87.1023 94.0357 86.9543 94.5881C86.3365 96.8925 84.7202 101.364 83.5153 104.102C82.8971 105.507 80.635 110.089 79.9557 111.313C79.7134 111.749 79.2504 112.583 78.9269 113.165C78.6036 113.747 78.2057 114.432 78.0429 114.687C77.88 114.941 77.258 115.914 76.6607 116.848C76.0634 117.782 75.61 118.582 75.6533 118.626C75.7955 118.768 80.6517 118.694 81.7303 118.533C84.9325 118.055 87.2747 117.362 89.9099 116.113C90.7081 115.735 91.4502 115.358 91.5591 115.275C91.6679 115.192 92.1132 114.925 92.5485 114.68C96.0141 112.736 99.1277 109.425 100.77 105.939C101.955 103.423 102.638 99.8057 102.64 96.0384C102.642 92.9597 102.092 89.1427 101.442 87.7157C101.231 87.2535 101.099 86.8069 101.148 86.7234C101.197 86.64 101.484 86.274 101.786 85.9102C102.087 85.5463 102.64 84.7078 103.013 84.0468C103.885 82.5014 105.603 78.8843 106.338 77.0457C106.677 76.196 106.97 75.5514 108.46 72.3794C108.743 71.7777 108.974 71.2626 108.974 71.2348C108.974 71.207 109.204 70.6872 109.486 70.0797C110.228 68.4797 111.648 65.3546 112.272 63.9474C112.433 63.5836 112.714 62.9584 112.895 62.5582C114.515 58.9882 116.021 55.0059 116.875 52.0399C118.447 46.5793 118.999 42.7153 119 37.1783C119.001 32.5094 118.631 29.4915 117.864 27.9195C117.445 27.0589 116.354 25.9506 115.514 25.5308C114.249 24.8989 112.636 24.6884 111.48 25.0044Z" fill="#00D1FF"/>
</svg>
