<svg width="25" height="24" viewBox="0 0 25 24" fill="none" xmlns="http://www.w3.org/2000/svg">
<path d="M3.64346 19.4825V24.0018L5.46147 22.911L11.1759 19.4825H16.8435C18.1671 19.4825 19.2435 18.4061 19.2435 17.0825V7.48252C19.2435 6.15892 18.1671 5.08252 16.8435 5.08252H2.44346C1.11986 5.08252 0.043457 6.15892 0.043457 7.48252V17.0825C0.043457 18.4061 1.11986 19.4825 2.44346 19.4825H3.64346ZM2.44346 7.48252H16.8435V17.0825H10.5111L6.04347 19.7634V17.0825H2.44346V7.48252Z" fill="#0072B4"/>
<path d="M21.6434 0.282471H7.24339C5.91979 0.282471 4.84338 1.35887 4.84338 2.68248H19.2434C20.567 2.68248 21.6434 3.75888 21.6434 5.08248V14.6825C22.967 14.6825 24.0434 13.6061 24.0434 12.2825V2.68248C24.0434 1.35887 22.967 0.282471 21.6434 0.282471Z" fill="#0072B4"/>
</svg>
