<svg width="44" height="44" viewBox="0 0 44 44" fill="none" xmlns="http://www.w3.org/2000/svg">
<path d="M14.6665 20.1667C14.6665 19.6805 14.8597 19.2142 15.2035 18.8703C15.5473 18.5265 16.0136 18.3334 16.4999 18.3334H27.4999C27.9861 18.3334 28.4524 18.5265 28.7962 18.8703C29.14 19.2142 29.3332 19.6805 29.3332 20.1667C29.3332 20.6529 29.14 21.1193 28.7962 21.4631C28.4524 21.8069 27.9861 22 27.4999 22H16.4999C16.0136 22 15.5473 21.8069 15.2035 21.4631C14.8597 21.1193 14.6665 20.6529 14.6665 20.1667ZM16.4999 25.6667C16.0136 25.6667 15.5473 25.8599 15.2035 26.2037C14.8597 26.5475 14.6665 27.0138 14.6665 27.5C14.6665 27.9863 14.8597 28.4526 15.2035 28.7964C15.5473 29.1402 16.0136 29.3334 16.4999 29.3334H23.8332C24.3194 29.3334 24.7857 29.1402 25.1296 28.7964C25.4734 28.4526 25.6665 27.9863 25.6665 27.5C25.6665 27.0138 25.4734 26.5475 25.1296 26.2037C24.7857 25.8599 24.3194 25.6667 23.8332 25.6667H16.4999ZM3.66652 22C3.66744 17.9806 4.98924 14.0729 7.42849 10.8783C9.86775 7.68367 13.2893 5.37919 17.1665 4.31951C21.0437 3.25984 25.1617 3.5037 28.8867 5.01358C32.6117 6.52345 35.7373 9.21564 37.7825 12.6758C39.8277 16.136 40.679 20.1724 40.2055 24.1638C39.7321 28.1553 37.96 31.8805 35.1621 34.7662C32.3642 37.6519 28.6954 39.5381 24.7205 40.1346C20.7456 40.7311 16.6849 40.0047 13.1632 38.0674L6.03519 40.238C5.71726 40.3349 5.37898 40.3435 5.05653 40.2629C4.73409 40.1824 4.43961 40.0156 4.2046 39.7806C3.96959 39.5456 3.80288 39.2511 3.72231 38.9287C3.64174 38.6063 3.65034 38.268 3.74719 37.95L5.91786 30.811C4.43636 28.1109 3.6619 25.0799 3.66652 22ZM21.9999 7.33338C19.3963 7.33316 16.8396 8.02599 14.5924 9.34072C12.3452 10.6554 10.4884 12.5447 9.21283 14.8143C7.93725 17.084 7.28884 19.6523 7.33419 22.2555C7.37953 24.8587 8.11701 27.4028 9.47086 29.6267C9.60525 29.8476 9.69139 30.0945 9.72362 30.351C9.75585 30.6076 9.73344 30.8681 9.65786 31.1154L8.25352 35.7317L12.8625 34.3274C13.1106 34.2518 13.3719 34.2297 13.6292 34.2626C13.8864 34.2955 14.1337 34.3825 14.3549 34.518C16.2878 35.6982 18.4679 36.4147 20.7241 36.6113C22.9803 36.808 25.2515 36.4794 27.3595 35.6515C29.4675 34.8235 31.3551 33.5186 32.8744 31.839C34.3937 30.1594 35.5034 28.1509 36.1165 25.9706C36.7297 23.7904 36.8296 21.4979 36.4084 19.2726C35.9872 17.0473 35.0564 14.9498 33.689 13.1445C32.3215 11.3391 30.5546 9.87495 28.5266 8.86676C26.4986 7.85857 24.2646 7.33373 21.9999 7.33338Z" fill="#969595"/>
</svg>
