<svg width="24" height="24" viewBox="0 0 24 24" fill="none" xmlns="http://www.w3.org/2000/svg">
<path d="M12 0C5.38275 0 0 5.38347 0 12.0004C0 18.6173 5.38275 24 12 24C18.6169 24 24 18.6173 24 12.0004C24 5.38347 18.617 0 12 0ZM12 22.1071C6.42673 22.1071 1.89279 17.5733 1.89279 12.0003C1.89279 6.42673 6.42673 1.89279 12 1.89279C17.5733 1.89279 22.1072 6.42673 22.1072 12.0003C22.1072 17.5733 17.5733 22.1071 12 22.1071Z" fill="#0072B4"/>
<path d="M10.1023 9.64859C10.1023 8.8894 11.2127 8.75976 12.1759 8.75976C13.0837 8.75976 14.3241 9.18521 15.3612 9.72292L15.5645 7.63042C15.0458 7.33389 13.8425 6.98198 12.6203 6.90843L12.9165 4.77881H10.9351L11.2317 6.90843C8.67659 7.14881 7.84314 8.63006 7.84314 9.87079C7.84314 13 13.6754 12.3341 13.6754 14.259C13.6754 14.9818 12.9908 15.2404 11.7869 15.2404C10.1578 15.2404 8.93521 14.667 8.30612 14.074L7.99101 16.4258C8.58409 16.7778 9.78697 17.0925 11.2317 17.1668L10.9351 19.2222H12.9165L12.6203 17.1479C15.6199 16.8885 16.1568 15.2959 16.1568 14.2409C16.1569 10.5192 10.1023 11.4445 10.1023 9.64859Z" fill="#0072B4"/>
</svg>
