<svg width="24" height="15" viewBox="0 0 24 15" fill="none" xmlns="http://www.w3.org/2000/svg">
<path d="M5.14284 5.14285C6.563 5.14285 7.71427 3.99159 7.71427 2.57143C7.71427 1.15127 6.563 0 5.14284 0C3.72268 0 2.57141 1.15127 2.57141 2.57143C2.57141 3.99159 3.72268 5.14285 5.14284 5.14285Z" fill="#0072B4"/>
<path d="M18.8573 5.14285C20.2775 5.14285 21.4287 3.99159 21.4287 2.57143C21.4287 1.15127 20.2775 0 18.8573 0C17.4372 0 16.2859 1.15127 16.2859 2.57143C16.2859 3.99159 17.4372 5.14285 18.8573 5.14285Z" fill="#0072B4"/>
<path d="M17.1428 14.9715V12.4C17.1428 12 16.9713 11.6 16.6285 11.3715C15.9428 10.8 15.0285 10.4 14.1142 10.1715C13.4856 10 12.7428 9.82861 11.9999 9.82861C11.3142 9.82861 10.5713 9.9429 9.88563 10.1715C8.97134 10.4 8.1142 10.8572 7.37134 11.3715C7.02848 11.6572 6.85706 12 6.85706 12.4V14.9715H17.1428Z" fill="#0072B4"/>
<path d="M11.9999 9.14285C13.4201 9.14285 14.5713 7.99159 14.5713 6.57143C14.5713 5.15127 13.4201 4 11.9999 4C10.5797 4 9.42847 5.15127 9.42847 6.57143C9.42847 7.99159 10.5797 9.14285 11.9999 9.14285Z" fill="#0072B4"/>
<path d="M23.4857 7.37122C22.8 6.7998 21.8857 6.3998 20.9714 6.17123C20.3428 5.9998 19.6 5.82837 18.8571 5.82837C18.1714 5.82837 17.4285 5.94266 16.7428 6.17123C16.4 6.28551 16.0571 6.3998 15.7142 6.57123V6.62837C15.7142 7.5998 15.3142 8.51408 14.6857 9.14265C15.7714 9.48551 16.6285 9.94265 17.3142 10.4569C17.4857 10.6284 17.6571 10.7427 17.7714 10.9712H24V8.3998C24 7.9998 23.8285 7.5998 23.4857 7.37122Z" fill="#0072B4"/>
<path d="M6.68571 10.4569C7.48571 9.88551 8.4 9.42837 9.31428 9.14265C8.68571 8.45694 8.28571 7.5998 8.28571 6.62837C8.28571 6.57123 8.28571 6.57123 8.28571 6.51408C7.94285 6.3998 7.6 6.22837 7.25714 6.17123C6.62857 5.9998 5.88571 5.82837 5.14286 5.82837C4.45714 5.82837 3.71428 5.94266 3.02857 6.17123C2.11428 6.45694 1.25714 6.85694 0.514286 7.37122C0.171429 7.5998 0 7.9998 0 8.3998V10.9712H6.17143C6.34285 10.7427 6.45714 10.6284 6.68571 10.4569Z" fill="#0072B4"/>
</svg>
