<svg width="24" height="27" viewBox="0 0 24 27" fill="none" xmlns="http://www.w3.org/2000/svg">
<path d="M13.2223 22.0027H0.668516C0.299523 22.0027 0 21.7032 0 21.3342V6.12119C0 5.7522 0.299523 5.453 0.668516 5.453H5.23407C6.11325 5.453 6.11325 6.78971 5.23407 6.78971H1.33671V20.666H13.2223C13.5248 18.2126 15.4689 16.2685 17.9223 15.966V6.78971H13.645C12.7661 6.78971 12.7661 5.453 13.645 5.453H18.5905C18.9598 5.453 19.259 5.7522 19.259 6.12119V15.966C21.9628 16.2992 24 18.6052 24 21.3342C24 24.3217 21.578 26.7437 18.5905 26.7437C15.8615 26.7437 13.5555 24.7065 13.2223 22.0027ZM5.0961 12.6742C4.21692 12.6742 4.21692 11.3378 5.0961 11.3378H14.1632C15.0421 11.3378 15.0421 12.6742 14.1632 12.6742H5.0961ZM5.0961 15.2991C4.21692 15.2991 4.21692 13.9624 5.0961 13.9624H14.1632C15.0421 13.9624 15.0421 15.2991 14.1632 15.2991H5.0961ZM10.2652 0.465141L11.1619 3.2426L14.087 3.23711C14.7345 3.23711 14.9933 4.06718 14.4776 4.44166L12.1099 6.15705L13.0188 8.93645C13.2272 9.5775 12.4582 10.0812 11.9515 9.65053L9.62934 7.95678L7.26643 9.68057C6.74332 10.0615 6.04572 9.54293 6.24217 8.9371L7.14914 6.15705L4.78042 4.44295C4.23598 4.04844 4.5578 3.19025 5.21985 3.23711L8.09715 3.2426L8.99507 0.460617C9.19443 -0.160724 10.073 -0.1478 10.2652 0.465141ZM10.0426 4.11306L9.62934 2.83322L9.2164 4.11306C9.12981 4.38092 8.87875 4.57511 8.58214 4.57511L7.23574 4.57252L8.32623 5.36156C8.55403 5.52667 8.66065 5.82587 8.56889 6.10794L8.15014 7.38908L9.22707 6.60359C9.45486 6.43041 9.77797 6.41845 10.0209 6.59552L11.1089 7.38908L10.6975 6.13121C10.5974 5.85785 10.6856 5.54056 10.9328 5.36156L12.0233 4.57252L10.7085 4.57511C10.4148 4.589 10.1366 4.40612 10.0426 4.11306ZM15.835 21.5765C15.2621 20.9145 16.2699 20.0427 16.8428 20.7045L18.0829 22.1307L20.3046 19.0786C20.8196 18.3713 21.8953 19.1542 21.3802 19.8618L18.6894 23.5578C18.4519 23.9288 17.9168 23.9724 17.6244 23.6344L15.835 21.5765ZM18.5905 17.2617C16.3413 17.2617 14.518 19.085 14.518 21.3342C14.518 23.5837 16.3413 25.407 18.5905 25.407C20.84 25.407 22.6633 23.5837 22.6633 21.3342C22.6633 19.085 20.84 17.2617 18.5905 17.2617Z" fill="#0072B4"/>
</svg>
