<svg width="24" height="21" viewBox="0 0 24 21" fill="none" xmlns="http://www.w3.org/2000/svg">
<path d="M20.5171 14.3774H18.1164L18.1162 18.6172C18.1162 19.4208 17.4727 20.0753 16.6742 20.0963C16.7197 20.1139 16.7688 20.1245 16.8206 20.1245H22.306C22.5317 20.1245 22.7147 19.9415 22.7147 19.7158V14.1264C22.7147 13.9007 22.5317 13.7178 22.306 13.7178H21.7483C21.4824 14.1152 21.0299 14.3774 20.5171 14.3774Z" fill="#0072B4"/>
<path d="M21.7955 10.0104V10.0081C21.7884 10.0106 21.7816 10.0134 21.7745 10.0159L21.7955 10.0104Z" fill="#0072B4"/>
<path d="M19.2274 11.6191H16.6349C16.2987 11.6191 15.9696 11.7551 15.732 11.9931C15.494 12.2307 15.3579 12.5598 15.3579 12.896V18.6171C15.3579 19.3223 15.9296 19.8939 16.6349 19.8939C17.3402 19.8939 17.9119 19.3223 17.9119 18.6171L17.9121 14.1729H19.4255V14.173H20.5169C20.5176 14.173 20.518 14.1729 20.5186 14.1729C21.2231 14.1721 21.7939 13.6008 21.7939 12.896H21.7941V11.5303H19.2204L19.2274 11.6191Z" fill="#0072B4"/>
<path d="M14.2323 18.6169V14.1729H15.1538V12.8959C15.1538 12.5054 15.3121 12.1238 15.588 11.8484C15.6778 11.7584 15.7798 11.6824 15.8889 11.6189H12.9552C12.7005 11.6189 12.4502 11.6975 12.2402 11.8387C12.2435 11.8421 12.2473 11.845 12.2507 11.8482C12.5266 12.1244 12.6847 12.5061 12.6847 12.896V18.6169C12.6847 19.0309 12.5136 19.4052 12.2391 19.6741C12.4434 19.8128 12.6899 19.8939 12.9553 19.8939C13.6607 19.8939 14.2323 19.3221 14.2323 18.6169Z" fill="#0072B4"/>
<path d="M18.2311 4.59716C19.5005 4.59716 20.5297 3.56805 20.5297 2.29858C20.5297 1.02911 19.5005 0 18.2311 0C16.9616 0 15.9325 1.02911 15.9325 2.29858C15.9325 3.56805 16.9616 4.59716 18.2311 4.59716Z" fill="#0072B4"/>
<path d="M2.16005 10.8961V10.3044H0V11.2239H2.16005V10.8961Z" fill="#0072B4"/>
<path d="M23.7521 10.3044H8.0946V11.2239H23.7521V10.3044Z" fill="#0072B4"/>
<path d="M9.27899 19.7158V14.3773H3.64154C3.40208 14.3773 3.17641 14.3189 2.97607 14.2175V19.7157C2.97607 19.9414 3.15904 20.1244 3.38471 20.1244H8.87035C9.09602 20.1245 9.27899 19.9415 9.27899 19.7158Z" fill="#0072B4"/>
<path d="M5.86796 0.0170898C4.59873 0.0170898 3.56958 1.04624 3.56958 2.31567C3.56958 2.8424 3.74713 3.32746 4.04503 3.71505H7.10041C7.14709 3.71505 7.19357 3.71862 7.2423 3.72567C7.28368 3.72108 7.31995 3.71862 7.3555 3.71862H7.37246C7.46849 3.71862 7.56605 3.73099 7.66157 3.75244C7.97724 3.35882 8.16654 2.85947 8.16654 2.31567C8.16654 1.04624 7.13739 0.0170898 5.86796 0.0170898Z" fill="#0072B4"/>
<path d="M2.16005 7.85211C1.95972 7.69704 1.87503 7.56331 1.83273 7.45758C1.83263 7.45737 1.83253 7.45727 1.83243 7.45706C1.81108 7.40129 1.80137 7.34622 1.79698 7.28697C1.79575 7.27103 1.79279 7.25632 1.79279 7.23947C1.79177 7.09818 1.83968 6.91082 1.94858 6.70548C2.04696 6.51557 2.19683 6.31779 2.36437 6.14217V12.896C2.36437 13.6013 2.93605 14.173 3.64136 14.173H9.92619V18.617C9.92619 19.3221 10.4979 19.894 11.2032 19.894C11.9085 19.894 12.4802 19.3221 12.4802 18.617V12.896C12.4802 12.5598 12.3441 12.2309 12.1063 11.9929C11.8684 11.7554 11.5394 11.619 11.2032 11.619H7.89016V9.37051C8.23556 9.71488 8.64542 9.86199 9.00696 9.95292C9.41856 10.0513 9.80544 10.0701 10.1031 10.071C10.4071 10.0708 10.616 10.0482 10.6374 10.0459C11.0864 9.99664 11.4101 9.59291 11.3607 9.14443C11.3113 8.69564 10.9073 8.3718 10.4586 8.42134C10.4403 8.42318 10.2966 8.43646 10.1031 8.43646C9.88819 8.43708 9.60868 8.41767 9.39006 8.36383C9.16541 8.31418 9.03812 8.22081 9.03771 8.20845C8.89367 8.03283 8.78426 7.75874 8.72266 7.40251C8.62612 6.86873 8.65084 6.21031 8.6255 5.6135C8.60681 5.30978 8.59199 5.02087 8.45653 4.67987C8.38635 4.51181 8.27019 4.31608 8.06608 4.15865C7.86431 3.99898 7.58736 3.91858 7.35577 3.92277C7.31603 3.92277 7.27731 3.92654 7.2392 3.93196C7.19435 3.92399 7.14818 3.91919 7.10078 3.91919H3.15396C3.09215 3.91919 3.03229 3.92695 2.97436 3.94054C2.65992 3.98365 2.40687 4.10338 2.14555 4.24722C1.68062 4.51703 1.22315 4.91167 0.844242 5.40908C0.47228 5.90506 0.163862 6.51546 0.158447 7.23916C0.158447 7.27941 0.161614 7.32048 0.16376 7.36124C0.175201 7.57853 0.2177 7.80124 0.298712 8.01792C0.302287 8.02844 0.305046 8.03917 0.309234 8.04969V8.04949C0.513757 8.58 0.932201 9.03696 1.50307 9.38093C1.70156 9.50117 1.9209 9.61007 2.16015 9.70967L2.16005 7.85211Z" fill="#0072B4"/>
<path d="M12.7076 10.2044L12.9201 9.98558L13.0623 9.83909C13.1854 9.95075 13.3432 10.0265 13.5212 10.0462C13.5427 10.0485 13.7517 10.0711 14.0555 10.0713C14.3532 10.0703 14.74 10.0516 15.1516 9.9532C15.5132 9.86218 15.923 9.71517 16.2684 9.37079V9.99815H17.8002L18.3129 6.22051C18.4454 6.27016 18.5848 6.2961 18.724 6.296H18.7243C18.7243 6.296 18.7247 6.296 18.7249 6.296C18.8641 6.296 19.0035 6.27005 19.1356 6.2204L19.4723 8.70012C19.6211 8.52818 19.8212 8.41121 20.0479 8.36738C20.9424 8.19514 21.4405 7.96927 21.7005 7.81C21.7346 7.78906 21.7653 7.76883 21.7942 7.74891V7.44866V6.14236C21.9619 6.31797 22.1116 6.51564 22.21 6.70566C22.3189 6.911 22.3668 7.09836 22.3658 7.23965C22.3656 7.2565 22.3629 7.27121 22.3616 7.28715C22.3572 7.3464 22.3474 7.40137 22.3261 7.45725C22.3261 7.45725 22.3259 7.45755 22.3259 7.45776C22.3152 7.48401 22.3012 7.51251 22.2846 7.54204C22.2155 7.66422 22.0849 7.81358 21.8073 7.98429C21.4653 8.19341 20.9063 8.41008 20.0867 8.56792C19.6438 8.65353 19.3539 9.08229 19.4399 9.52566C19.5153 9.91632 19.8577 10.1876 20.2412 10.1876C20.2929 10.1876 20.3451 10.1826 20.3976 10.1725C21.3474 9.98773 22.0816 9.72876 22.6555 9.38141C22.9514 9.20304 23.2055 8.99372 23.411 8.76018C23.6017 8.5432 23.7508 8.30547 23.8494 8.04997V8.05018C23.8534 8.03966 23.8561 8.02903 23.8598 8.01841C23.941 7.80173 23.9835 7.57902 23.9948 7.36173C23.997 7.32097 24.0003 7.2799 24.0001 7.23965C23.9948 6.51595 23.6864 5.90555 23.3145 5.40957C22.9356 4.91215 22.478 4.51751 22.0132 4.24771C21.7517 4.10387 21.4988 3.98414 21.1843 3.94103C21.1265 3.92744 21.0667 3.91968 21.0048 3.91968H20.1357C19.6764 4.45877 18.9931 4.80162 18.2311 4.80162C17.5054 4.80162 16.851 4.49075 16.3933 3.99548C16.2855 4.03461 16.1818 4.08865 16.0928 4.15904C15.8887 4.31646 15.7726 4.5122 15.7024 4.68025C15.5669 5.02126 15.5521 5.31017 15.5334 5.61389C15.5081 6.2107 15.5328 6.86912 15.4363 7.4029C15.3746 7.75902 15.2652 8.03322 15.1212 8.20883C15.1208 8.22119 14.9935 8.31457 14.7689 8.36422C14.669 8.38884 14.5566 8.4059 14.4433 8.41744L14.6791 8.17461L14.9366 7.9095L14.6435 7.62479L14.0533 8.23233L13.8592 8.43225C13.7706 8.42817 13.7115 8.42265 13.7002 8.42163C13.2514 8.37218 12.8475 8.69593 12.7981 9.14471C12.7849 9.26424 12.7989 9.38039 12.8343 9.48766L12.6779 9.64876L12.366 9.96985L12.395 9.99805L12.6591 10.2546L12.7076 10.2044ZM18.336 4.97621H18.7244H19.1125L19.3066 5.7424L19.277 5.78899C19.1173 5.92241 18.9211 5.98922 18.7242 5.98942C18.5272 5.98922 18.3317 5.92251 18.1719 5.78939L18.1419 5.7424L18.336 4.97621Z" fill="#0072B4"/>
</svg>
