<svg width="23" height="22" viewBox="0 0 23 22" fill="none" xmlns="http://www.w3.org/2000/svg">
<g clip-path="url(#clip0_8_4731)">
<path d="M8.11041 0.723117C5.91227 1.48567 4.0166 2.93303 2.70184 4.85259C1.38707 6.77215 0.722525 9.06274 0.8058 11.3879C0.889075 13.7131 1.71579 15.9502 3.1645 17.7708C4.61321 19.5914 6.60757 20.8995 8.85463 21.5028C10.6764 21.9729 12.585 21.9935 14.4165 21.563C16.0756 21.1903 17.6096 20.3931 18.8681 19.2495C20.1779 18.0229 21.1286 16.4625 21.6181 14.7361C22.1499 12.8586 22.2445 10.8843 21.8948 8.96452H11.6648V13.2081H17.5893C17.4709 13.8849 17.2172 14.5309 16.8433 15.1074C16.4694 15.6839 15.9831 16.179 15.4134 16.5631C14.69 17.0419 13.8745 17.3639 13.0192 17.5084C12.1614 17.668 11.2816 17.668 10.4239 17.5084C9.55443 17.3289 8.73198 16.97 8.00901 16.4548C6.84739 15.6326 5.97517 14.4644 5.51682 13.117C5.05085 11.7444 5.05085 10.2564 5.51682 8.88374C5.84308 7.92161 6.38244 7.0456 7.09463 6.32109C7.90965 5.47675 8.94149 4.87321 10.0769 4.57669C11.2124 4.28017 12.4076 4.30212 13.5314 4.64015C14.4093 4.90952 15.2121 5.38038 15.8757 6.01515C16.5437 5.35057 17.2106 4.68426 17.8764 4.01624C18.2201 3.65702 18.5948 3.31499 18.9334 2.94718C17.9202 2.00448 16.7311 1.27089 15.434 0.78843C13.0719 -0.0692437 10.4874 -0.0922929 8.11041 0.723117Z" fill="white"/>
<path d="M8.11043 0.723953C10.4872 -0.0920118 13.0718 -0.0695694 15.434 0.787547C16.7313 1.27328 17.9199 2.0104 18.9317 2.95661C18.5879 3.32442 18.2253 3.66817 17.8747 4.02567C17.2078 4.6914 16.5415 5.35484 15.8757 6.01598C15.2121 5.38121 14.4093 4.91035 13.5314 4.64098C12.4079 4.30177 11.2128 4.27855 10.0771 4.57385C8.94131 4.86916 7.90884 5.47159 7.09293 6.31505C6.38074 7.03956 5.84138 7.91557 5.51512 8.8777L1.95215 6.11911C3.22748 3.59007 5.43562 1.65556 8.11043 0.723953Z" fill="#E33629"/>
<path d="M1.00658 8.85195C1.19794 7.90281 1.51589 6.98366 1.95189 6.11914L5.51486 8.88461C5.04889 10.2572 5.04889 11.7453 5.51486 13.1179C4.32778 14.0346 3.14012 14.9558 1.95189 15.8816C0.860742 13.7097 0.527961 11.235 1.00658 8.85195Z" fill="#F8BD00"/>
<path d="M11.6643 8.96289H21.8943C22.2441 10.8826 22.1494 12.857 21.6176 14.7345C21.1282 16.4609 20.1774 18.0213 18.8676 19.2479C17.7178 18.3507 16.5628 17.4604 15.4129 16.5632C15.983 16.1787 16.4696 15.683 16.8435 15.1059C17.2174 14.5288 17.4709 13.8822 17.5889 13.2048H11.6643C11.6626 11.792 11.6643 10.3774 11.6643 8.96289Z" fill="#587DBD"/>
<path d="M1.9502 15.8809C3.13842 14.9643 4.32608 14.043 5.51316 13.1172C5.97243 14.465 6.84589 15.6333 8.00879 16.455C8.73402 16.9678 9.55823 17.3237 10.4288 17.5C11.2865 17.6595 12.1664 17.6595 13.0241 17.5C13.8794 17.3554 14.695 17.0334 15.4183 16.5547C16.5682 17.4519 17.7232 18.3422 18.873 19.2394C17.6147 20.3836 16.0808 21.1814 14.4214 21.5545C12.59 21.9851 10.6813 21.9644 8.85957 21.4944C7.41875 21.1097 6.07292 20.4315 4.90645 19.5023C3.67191 18.522 2.66354 17.2867 1.9502 15.8809Z" fill="#319F43"/>
</g>
<defs>
<clipPath id="clip0_8_4731">
<rect width="22" height="22" fill="white" transform="translate(0.446289)"/>
</clipPath>
</defs>
</svg>
