<svg width="24" height="27" viewBox="0 0 24 27" fill="none" xmlns="http://www.w3.org/2000/svg">
<path fill-rule="evenodd" clip-rule="evenodd" d="M3.67185 0.0237731C3.2684 0.125432 2.83872 0.348787 2.59049 0.585845C2.26234 0.899284 1.96276 1.50592 1.79631 2.19417C1.71457 2.53214 1.70041 2.59801 1.66455 2.80789C1.54558 3.50362 1.4433 5.05506 1.47462 5.68843C1.4825 5.84763 1.49551 6.13553 1.50352 6.32823C1.53204 7.01296 1.62687 7.96111 1.71638 8.45641C1.73575 8.56346 1.76544 8.74449 1.78239 8.85868C1.79937 8.97288 1.82331 9.11887 1.83563 9.1831C1.84793 9.24733 1.87198 9.38748 1.88906 9.49454C1.91727 9.67133 1.94103 9.78895 2.02803 10.1823C2.12185 10.6066 2.36241 11.3307 2.53012 11.6938C2.55808 11.7543 2.58094 11.8099 2.58094 11.8173C2.58094 11.8355 2.81264 12.3331 2.95555 12.6219C3.07252 12.8583 3.21271 13.0997 3.38617 13.3635C3.43848 13.4431 3.50617 13.5515 3.53658 13.6043L3.5919 13.7003L3.53208 13.7255C3.4992 13.7394 3.45434 13.762 3.43238 13.7757C3.41043 13.7894 3.28101 13.8653 3.14481 13.9444C2.89126 14.0917 2.52823 14.3525 2.31486 14.5407C1.86253 14.9396 1.33161 15.556 1.05023 16.0088C0.773484 16.4542 0.45656 17.1436 0.346245 17.5401C0.328365 17.6043 0.303939 17.6817 0.291966 17.7121C0.263815 17.7835 0.196444 18.0587 0.162573 18.2408C0.147965 18.3193 0.123859 18.4478 0.109011 18.5263C0.0941378 18.6048 0.0739693 18.7771 0.0641777 18.9091C0.0543595 19.0411 0.0359204 19.1492 0.0231753 19.1492C0.0104302 19.1492 0 19.3419 0 19.5774C0 19.8129 0.0104302 20.0056 0.0231753 20.0056C0.0359204 20.0056 0.0544394 20.1137 0.064364 20.2457C0.0872732 20.5515 0.134688 20.8381 0.217783 21.1735C0.248701 21.2983 0.413083 21.8009 0.451239 21.8873C0.660268 22.3607 0.827417 22.6812 1.07567 23.0844C1.36912 23.561 2.11273 24.3851 2.58094 24.7525C2.67606 24.8272 2.77518 24.9051 2.8012 24.9259C2.89619 25.0014 3.26422 25.2397 3.44569 25.3432C4.08012 25.7049 4.87736 26.0126 5.55195 26.1561C6.67977 26.396 8.22147 26.2969 9.40883 25.9082C9.9408 25.7341 11.0022 25.256 11.532 24.9518C12.0675 24.6444 12.565 24.2372 13.2949 23.5086C14.2094 22.5959 14.816 21.719 15.3647 20.5167C15.5854 20.033 15.8309 19.2254 15.9382 18.6301C15.9549 18.5373 15.9797 18.4089 15.9932 18.3446C16.0778 17.9432 16.1242 17.3496 16.1241 16.6721C16.1239 15.827 16.0583 14.5693 15.9904 14.1077C15.921 13.6368 15.9071 13.5478 15.8855 13.4394C15.8726 13.3752 15.8476 13.2467 15.8297 13.154C15.7008 12.4835 15.3404 11.3858 15.0323 10.7252C15.0051 10.667 14.9588 10.5597 14.9293 10.4868C14.7649 10.0798 14.0167 8.63556 13.5616 7.8465C13.0042 6.88 12.1304 5.61067 11.5625 4.94245C10.9497 4.22134 10.1745 3.46233 9.47232 2.89603C8.41618 2.04419 7.51958 1.45064 6.38583 0.852723C6.18827 0.74852 5.95479 0.62532 5.86698 0.578889C5.45209 0.359635 5.13865 0.214478 4.9669 0.162053C4.52098 0.0260052 3.91832 -0.0383592 3.67185 0.0237731ZM22.4834 4.90492C22.175 4.98696 22.0475 5.03897 21.8054 5.18151C21.444 5.3943 20.7689 5.99476 20.2827 6.53586C19.8901 6.97278 19.7666 7.11181 19.6493 7.24916C19.5764 7.33457 19.4946 7.428 19.4677 7.45679C19.4408 7.48557 19.1294 7.86947 18.7759 8.30993C18.4223 8.75035 18.0754 9.18248 18.0049 9.2702C17.8414 9.47354 17.6689 9.69044 17.6017 9.7772C17.5728 9.81444 17.4571 9.95651 17.3444 10.0929L17.1396 10.3409L17.2188 10.599C17.4611 11.3887 17.5885 11.9833 17.8138 13.3746C18.0313 14.7174 18.0269 16.3932 17.8028 17.5271C17.7717 17.6843 17.6811 18.0501 17.6292 18.2278C17.6084 18.2992 17.5669 18.4462 17.537 18.5546C17.4124 19.0066 17.0864 19.8838 16.8434 20.4209C16.7187 20.6965 16.2625 21.5953 16.1255 21.8354C16.0766 21.921 15.9833 22.0845 15.918 22.1987C15.8528 22.3129 15.7726 22.4472 15.7397 22.4972C15.7069 22.5471 15.5815 22.7379 15.461 22.9212C15.3405 23.1044 15.2491 23.2613 15.2578 23.2698C15.2865 23.2978 16.2659 23.2833 16.4834 23.2517C17.1292 23.1579 17.6016 23.0219 18.1331 22.777C18.2941 22.7028 18.4437 22.6289 18.4657 22.6126C18.4876 22.5964 18.5774 22.5439 18.6653 22.4959C19.3642 22.1145 19.9921 21.465 20.3233 20.7812C20.5623 20.2877 20.7001 19.5781 20.7005 18.8391C20.7008 18.2352 20.59 17.4864 20.4589 17.2065C20.4164 17.1158 20.3898 17.0282 20.3996 17.0119C20.4095 16.9955 20.4674 16.9237 20.5282 16.8523C20.589 16.7809 20.7004 16.6165 20.7757 16.4868C20.9516 16.1837 21.2981 15.4741 21.4463 15.1134C21.5147 14.9468 21.5739 14.8203 21.8743 14.1981C21.9313 14.0801 21.9779 13.979 21.9779 13.9736C21.9779 13.9681 22.0244 13.8661 22.0812 13.747C22.2309 13.4331 22.5172 12.8201 22.6431 12.5441C22.6756 12.4727 22.7322 12.3501 22.7688 12.2715C23.0954 11.5712 23.3992 10.7901 23.5714 10.2083C23.8884 9.13708 23.9998 8.37912 24 7.29297C24.0001 6.3771 23.9255 5.78511 23.771 5.47675C23.6864 5.30793 23.4664 5.09052 23.2969 5.00817C23.0418 4.88421 22.7165 4.84292 22.4834 4.90492Z" fill="#0072B4"/>
</svg>
