<svg width="44" height="44" viewBox="0 0 44 44" fill="none" xmlns="http://www.w3.org/2000/svg">
<g clip-path="url(#clip0_54_3420)">
<path fill-rule="evenodd" clip-rule="evenodd" d="M37.3997 6.24042V13.4105C38.2665 13.4105 39.1248 13.5812 39.9255 13.9129C40.7263 14.2446 41.4539 14.7308 42.0668 15.3437C42.6797 15.9566 43.1659 16.6842 43.4976 17.485C43.8293 18.2857 44 19.144 44 20.0108C44 20.8775 43.8293 21.7358 43.4976 22.5366C43.1659 23.3374 42.6797 24.065 42.0668 24.6779C41.4539 25.2908 40.7263 25.7769 39.9255 26.1086C39.1248 26.4403 38.2665 26.611 37.3997 26.611V33.2113C37.3997 36.8371 33.2614 38.9073 30.3595 36.7314L25.8273 33.3301C23.4047 31.5136 20.5839 30.3009 17.5989 29.7924V36.0494C17.5992 37.4877 17.0795 38.8776 16.1357 39.9629C15.1918 41.0482 13.8875 41.7557 12.4631 41.9551C11.0387 42.1545 9.59022 41.8322 8.38471 41.0477C7.1792 40.2632 6.2979 39.0694 5.90327 37.6863L2.44913 25.5946C1.20612 24.1267 0.397194 22.3411 0.113272 20.4387C-0.17065 18.5363 0.0816934 16.5924 0.841936 14.8255C1.60218 13.0586 2.84018 11.5388 4.41678 10.4369C5.99339 9.33496 7.84609 8.69465 9.76663 8.58792L16.4065 8.2183C19.6552 8.03752 22.8146 7.0882 25.6249 5.44839L30.7819 2.43867C33.7168 0.729204 37.3997 2.84349 37.3997 6.24042ZM7.99336 28.9827L10.134 36.4784C10.2371 36.8413 10.4679 37.1546 10.7839 37.3605C11.0999 37.5664 11.4797 37.651 11.8533 37.5987C12.2268 37.5465 12.5688 37.3608 12.8161 37.076C13.0634 36.7912 13.1993 36.4266 13.1988 36.0494V29.4272L9.76663 29.2357C9.16936 29.2026 8.57606 29.118 7.99336 28.9827ZM32.9996 6.24042L27.8403 9.25235C24.706 11.0794 21.2111 12.2011 17.5989 12.5393V25.3416C21.5305 25.8828 25.2728 27.4163 28.4674 29.81L32.9996 33.2113V6.24042ZM13.1988 12.8033L10.0086 12.9793C8.52456 13.0612 7.12512 13.6966 6.08657 14.7599C5.04802 15.8232 4.44583 17.2372 4.39886 18.7228C4.35189 20.2084 4.86356 21.6576 5.83287 22.7844C6.80218 23.9112 8.15868 24.6336 9.63462 24.8092L10.0086 24.8422L13.1988 25.0182V12.8033ZM37.3997 17.8107V22.2109C37.9605 22.2102 38.4998 21.9955 38.9076 21.6106C39.3154 21.2256 39.5607 20.6995 39.5936 20.1397C39.6265 19.5799 39.4443 19.0287 39.0844 18.5987C38.7245 18.1687 38.214 17.8923 37.6571 17.8261L37.3997 17.8107Z" fill="#969595"/>
</g>
<defs>
<clipPath id="clip0_54_3420">
<rect width="44" height="44" fill="white"/>
</clipPath>
</defs>
</svg>
