<svg width="29" height="29" viewBox="0 0 29 29" fill="none" xmlns="http://www.w3.org/2000/svg">
<g id="Group 62">
<circle id="Ellipse 45" cx="14.5" cy="14.5" r="14.5" fill="black" fill-opacity="0.6"/>
<g id="Group 61">
<path id="Vector" fill-rule="evenodd" clip-rule="evenodd" d="M20.2222 8C20.0492 8 19.8812 8.05765 19.7447 8.16384L16.4554 10.7222H10.1111C8.39289 10.7222 7 12.1151 7 13.8333V14.6111C7 16.3293 8.39289 17.7222 10.1111 17.7222H16.4554L19.7447 20.2806C19.8812 20.3868 20.0492 20.4444 20.2222 20.4444H21.7778C22.2073 20.4444 22.5556 20.0962 22.5556 19.6667V8.77778C22.5556 8.34823 22.2073 8 21.7778 8H20.2222Z" fill="#FFC018"/>
<path id="Vector_2" fill-rule="evenodd" clip-rule="evenodd" d="M10.111 16.1667C9.86863 16.1667 9.64008 16.2798 9.49293 16.4724C9.34579 16.6651 9.29688 16.9153 9.36067 17.1492L10.2929 20.5673C10.5236 21.4132 11.2919 22.0001 12.1688 22.0001H12.8614C14.1435 22.0001 15.0746 20.781 14.7372 19.544L13.9725 16.7399C13.8802 16.4015 13.5729 16.1667 13.2221 16.1667H10.111Z" fill="#FFC018"/>
</g>
</g>
</svg>
