<svg width="24" height="25" viewBox="0 0 24 25" fill="none" xmlns="http://www.w3.org/2000/svg">
<path fill-rule="evenodd" clip-rule="evenodd" d="M10.8949 0.936479C11.5167 0.354507 12.4833 0.354506 13.1052 0.936479L15.6124 3.28318C15.7078 3.37246 15.8324 3.42406 15.963 3.42838L19.3952 3.54194C20.2464 3.5701 20.93 4.25358 20.9581 5.10478L21.0716 8.53708C21.0759 8.66765 21.1276 8.79223 21.2168 8.88762L23.5635 11.3949C24.1455 12.0167 24.1455 12.9833 23.5635 13.6051L21.2168 16.1124C21.1276 16.2078 21.0759 16.3324 21.0716 16.4629L20.9581 19.8953C20.93 20.7465 20.2464 21.4299 19.3952 21.4581L15.963 21.5717C15.8324 21.576 15.7078 21.6275 15.6124 21.7169L13.1052 24.0636C12.4833 24.6455 11.5167 24.6455 10.8949 24.0636L8.38761 21.7169C8.29223 21.6275 8.16766 21.576 8.03708 21.5717L4.60478 21.4581C3.75359 21.4299 3.07011 20.7465 3.04194 19.8953L2.92838 16.4629C2.92406 16.3324 2.87246 16.2078 2.78318 16.1124L0.436477 13.6051C-0.145492 12.9833 -0.145493 12.0167 0.436477 11.3949L2.78318 8.88762C2.87246 8.79223 2.92406 8.66765 2.92838 8.53708L3.04194 5.10478C3.07011 4.25358 3.75359 3.5701 4.60478 3.54194L8.03708 3.42838C8.16766 3.42406 8.29223 3.37246 8.38761 3.28318L10.8949 0.936479ZM12.3684 1.72363C12.1611 1.52964 11.8389 1.52964 11.6317 1.72363L9.12435 4.07033C8.83818 4.33817 8.46447 4.49296 8.07273 4.50593L4.64043 4.61949C4.3567 4.62887 4.12888 4.8567 4.11949 5.14043L4.00593 8.57273C3.99297 8.96448 3.83817 9.33818 3.57033 9.62435L1.22363 12.1316C1.02963 12.3389 1.02963 12.6611 1.22363 12.8684L3.57033 15.3757C3.83817 15.6619 3.99297 16.0355 4.00593 16.4273L4.11949 19.8596C4.12888 20.1434 4.3567 20.3712 4.64043 20.3805L8.07273 20.4941C8.46447 20.5071 8.83818 20.6618 9.12435 20.9297L11.6317 23.2764C11.8389 23.4704 12.1611 23.4704 12.3684 23.2764L14.8757 20.9297C15.1618 20.6618 15.5356 20.5071 15.9273 20.4941L19.3596 20.3805C19.6433 20.3712 19.8711 20.1434 19.8805 19.8596L19.9941 16.4273C20.0071 16.0355 20.1619 15.6619 20.4297 15.3757L22.7764 12.8684C22.9704 12.6611 22.9704 12.3389 22.7764 12.1316L20.4297 9.62435C20.1619 9.33818 20.0071 8.96448 19.9941 8.57273L19.8805 5.14043C19.8711 4.8567 19.6433 4.62887 19.3596 4.61949L15.9273 4.50593C15.5356 4.49296 15.1618 4.33817 14.8757 4.07033L12.3684 1.72363Z" fill="#0072B4"/>
<path fill-rule="evenodd" clip-rule="evenodd" d="M10.0579 6.73704C11.8821 8.00174 13.0777 10.1109 13.0777 12.5001C13.0777 14.8892 11.8821 16.9984 10.0579 18.2631C10.5073 18.372 10.9769 18.4298 11.4605 18.4298C14.7354 18.4298 17.3902 15.775 17.3902 12.5001C17.3902 9.22516 14.7354 6.57032 11.4605 6.57032C10.9769 6.57032 10.5073 6.6281 10.0579 6.73704ZM8.54029 6.12788C9.42992 5.71957 10.4194 5.49219 11.4605 5.49219C15.3309 5.49219 18.4684 8.62973 18.4684 12.5001C18.4684 16.3705 15.3309 19.508 11.4605 19.508C10.4194 19.508 9.42992 19.2806 8.54029 18.8723C8.34881 18.7844 8.22607 18.5931 8.22607 18.3824C8.22607 18.1716 8.34881 17.9802 8.54029 17.8924C10.5829 16.9549 11.9996 14.8924 11.9996 12.5001C11.9996 10.1078 10.5829 8.0452 8.54029 7.10774C8.34881 7.01985 8.22607 6.82848 8.22607 6.61781C8.22607 6.40713 8.34881 6.21576 8.54029 6.12788Z" fill="#0072B4"/>
</svg>
